{"title":"Paranormal Activity The Marked Ones[2014-1080p]","uid":9873473,"size":1753691907,"categoryP":"video","categoryS":"hd___movies","magnet":"?xt=urn:btih:6bd8f60b2cd3d5ae0fab3016db6ca75e52760bc9&amp;dn=Paranormal+Activity+The+Marked+Ones%5B2014-1080p%5D&amp;tr=udp%3A%2F%2Ftracker.openbittorrent.com%3A80&amp;tr=udp%3A%2F%2Fopen.demonii.com%3A1337&amp;tr=udp%3A%2F%2Ftracker.coppersurfer.tk%3A6969&amp;tr=udp%3A%2F%2Fexodus.desync.com%3A6969","seeders":11,"leechers":0,"uploader":"haloReD","files":-1,"time":1396449065,"description":"               Paranormal.Activity.The.Marked.Ones.2014.1080p\n\nGeneral:\n\nName                   : Paranormal.Activity.The.Marked.Ones.2014.1080p.BluRay.x264.mp4\nFormat                 : MPEG-4\nCodec ID               : isom\nFile size              : 1.63 GiB\nDuration               : 1h 41mn\nOverall bit rate mode  : Variable\nOverall bit rate       : 2 313 Kbps\n\n\nVideo:\n\nFormat                 : AVC\nDuration               : 1h 41mn\nBit rate               : 2 215 Kbps\nMaximum bit rate       : 8 259 Kbps\nWidth                  : 1 920 pixels\nHeight                 : 1 080 pixels\nDisplay aspect ratio   : 16:9\nFrame rate             : 23.976 fps\nStream size            : 1.56 GiB (96%)\n\n\nAudio:\n\nFormat                 : AAC\nCodec ID               : 40\nDuration               : 1h 41mn\nBit rate mode          : Variable\nBit rate               : 93.9 Kbps\nMaximum bit rate       : 108 Kbps\nChannel(s)             : 2 channels\nSampling rate          : 48.0 KHz\nCompression mode       : Lossy\nStream size            : 67.9 MiB (4%)\nLanguage               : English\n\niMDB Info:\n\nRatings: 5.1/10 from 10,029 users\n\nJesse begins experiencing a number of disturbing and unexplainable things after the death of his neighbor. \nAs he investigates, it isn't long before Jessie finds he's been marked for possession by a malevolent demonic \nentity, and it's only a matter of time before he is completely under its control.\n\nDirector: Christopher Landon\nWriter  : Christopher Landon\nStars   : Andrew Jacobs, Jorge Diaz, Gabrielle Walsh  \n\nScreen:\n &lt;a href=&quot;\nhttp://i.imgur.com/vTC9iHH.png&quot; rel=&quot;nofollow&quot; target=&quot;_NEW&quot;&gt;\nhttp://i.imgur.com/vTC9iHH.png&lt;/a&gt;\n &lt;a href=&quot;\nhttp://i.imgur.com/JRMOwlO.png&quot; rel=&quot;nofollow&quot; target=&quot;_NEW&quot;&gt;\nhttp://i.imgur.com/JRMOwlO.png&lt;/a&gt;\n &lt;a href=&quot;\nhttp://i.imgur.com/uMqOajA.png&quot; rel=&quot;nofollow&quot; target=&quot;_NEW&quot;&gt;\nhttp://i.imgur.com/uMqOajA.png&lt;/a&gt;\n &lt;a href=&quot;\nhttp://i.imgur.com/pOArdxd.png&quot; rel=&quot;nofollow&quot; target=&quot;_NEW&quot;&gt;\nhttp://i.imgur.com/pOArdxd.png&lt;/a&gt;\n\n\n\n","torrent":{"xt":"urn:btih:6bd8f60b2cd3d5ae0fab3016db6ca75e52760bc9","amp;dn":"Paranormal+Activity+The+Marked+Ones%5B2014-1080p%5D","amp;tr":["udp%3A%2F%2Ftracker.openbittorrent.com%3A80","udp%3A%2F%2Fopen.demonii.com%3A1337","udp%3A%2F%2Ftracker.coppersurfer.tk%3A6969","udp%3A%2F%2Fexodus.desync.com%3A6969"],"infoHash":"6bd8f60b2cd3d5ae0fab3016db6ca75e52760bc9","infoHashBuffer":{"type":"Buffer","data":[107,216,246,11,44,211,213,174,15,171,48,22,219,108,167,94,82,118,11,201]},"announce":[],"urlList":[]}}